<svg xmlns="http://www.w3.org/2000/svg" width="14" height="17" fill="none"><path fill="#000" d="M12.333 6.977c-.246 0-.476.067-.675.183a1.335 1.335 0 0 0-1.325-1.183c-.325 0-.624.118-.857.314a1.333 1.333 0 0 0-1.81-.468V2.312a1.334 1.334 0 0 0-2.666 0v8.917c0 .168-.11.254-.158.284a.33.33 0 0 1-.324.014l-2.141-1.07A1.413 1.413 0 0 0 .333 11.72v.254c0 .093.039.181.106.244l3.848 3.59a4.322 4.322 0 0 0 2.956 1.164h2.09a4.337 4.337 0 0 0 4.334-4.331V8.309c0-.735-.598-1.332-1.334-1.332ZM13 12.64a3.67 3.67 0 0 1-3.667 3.665h-2.09c-.931 0-1.82-.35-2.501-.986L1 11.83v-.11a.746.746 0 0 1 1.079-.666l2.14 1.07c.313.156.677.139.973-.044a.994.994 0 0 0 .475-.85V2.311a.667.667 0 0 1 1.333 0V7.31a.333.333 0 1 0 .667 0v-.333a.667.667 0 0 1 1.333 0v.335a.333.333 0 0 0 .667-.002v-.005A.668.668 0 0 1 11 7.31v1a.333.333 0 1 0 .667 0 .667.667 0 0 1 1.333 0v4.33Z"/></svg>